# xmcd CD database file
#
# Track frame offsets:
#	150
#	1376
#	15384
#	33014
#	54757
#	71933
#	88089
#	102364
#	116639
#	133671
#	147264
#	159520
#	171807
#	191875
#	211478
#	234306
#	251377
#	269290
#
# Disc length: 3860 seconds
#
# Revision: 0
# Processed by: cddbd v1.5.2PL0 Copyright (c) Steve Scherf et al.
# Submitted via: CDex 1.51
#
DISCID=f20f1212
DTITLE=The Black Keys - The Black Keys Live DVD
DYEAR=2005
DGENRE=Blues
TTITLE0=Intro
TTITLE1=10 a.m. Automatic
TTITLE2=Thickfreakness
TTITLE3=Girl Is On My Mind
TTITLE4=Hard Row
TTITLE5=Busted
TTITLE6=Stack Shot Billy
TTITLE7=Set You Free
TTITLE8=The Breaks
TTITLE9=All Hands Against His Own
TTITLE10=Till I Get My Way
TTITLE11=Grown So Ugly
TTITLE12=No Trust
TTITLE13=Have Love Will Travel
TTITLE14=Everywhere I Go
TTITLE15=No Fun
TTITLE16=The Desperate Man
TTITLE17=Heavy Soul
EXTD=YEAR: 2005
EXTT0=
EXTT1=
EXTT2=
EXTT3=
EXTT4=
EXTT5=
EXTT6=
EXTT7=
EXTT8=
EXTT9=
EXTT10=
EXTT11=
EXTT12=
EXTT13=
EXTT14=
EXTT15=
EXTT16=
EXTT17=
PLAYORDER=
